<svg xmlns="http://www.w3.org/2000/svg" xmlns:xlink="http://www.w3.org/1999/xlink" width="1800" zoomAndPan="magnify" viewBox="0 0 1350 1151.999944" height="1536" preserveAspectRatio="xMidYMid meet" version="1.0"><defs><clipPath id="e2c8560acf"><path d="M 32 630.71875 L 676 630.71875 L 676 979.425781 L 32 979.425781 Z M 32 630.71875 " clip-rule="nonzero"/></clipPath><clipPath id="70f539b1ba"><path d="M 31.871094 0.734375 L 676.328125 0.734375 L 676.328125 643.902344 L 31.871094 643.902344 Z M 31.871094 0.734375 " clip-rule="nonzero"/></clipPath><clipPath id="1a9fcf0452"><rect x="0" width="677" y="0" height="980"/></clipPath></defs><g transform="matrix(1, 0, 0, 1, 321, 86)"><g clip-path="url(#1a9fcf0452)"><g clip-path="url(#e2c8560acf)"><path fill="#000000" d="M 32.046875 651.96875 L 205.457031 651.96875 L 205.457031 729.363281 C 84.6875 722.152344 44.925781 677.816406 32.046875 651.96875 Z M 675.949219 703.050781 C 601.488281 703.050781 513.003906 734.347656 513.003906 830.386719 C 513.003906 926.425781 618.757812 953.371094 618.757812 953.371094 L 618.757812 979.269531 L 495.773438 979.269531 L 495.773438 967.402344 C 495.773438 966.324219 495.746094 965.25 495.691406 964.175781 C 495.636719 963.097656 495.558594 962.023438 495.453125 960.953125 C 495.34375 959.882812 495.210938 958.8125 495.054688 957.75 C 494.894531 956.683594 494.710938 955.621094 494.5 954.566406 C 494.289062 953.511719 494.054688 952.460938 493.789062 951.417969 C 493.527344 950.371094 493.242188 949.335938 492.925781 948.304688 C 492.613281 947.273438 492.277344 946.253906 491.914062 945.238281 C 491.550781 944.226562 491.160156 943.21875 490.75 942.226562 C 490.335938 941.230469 489.898438 940.246094 489.4375 939.273438 C 488.976562 938.300781 488.492188 937.339844 487.984375 936.390625 C 487.476562 935.441406 486.945312 934.503906 486.390625 933.582031 C 485.839844 932.65625 485.261719 931.75 484.664062 930.851562 C 484.066406 929.957031 483.445312 929.078125 482.800781 928.214844 C 482.160156 927.347656 481.5 926.5 480.816406 925.667969 C 480.132812 924.835938 479.429688 924.023438 478.703125 923.222656 C 477.980469 922.425781 477.238281 921.648438 476.476562 920.886719 C 475.714844 920.125 474.933594 919.382812 474.136719 918.660156 C 473.339844 917.9375 472.523438 917.234375 471.691406 916.550781 C 470.859375 915.867188 470.007812 915.207031 469.144531 914.566406 C 468.28125 913.921875 467.398438 913.304688 466.503906 912.707031 C 465.609375 912.109375 464.699219 911.53125 463.773438 910.980469 C 462.851562 910.425781 461.914062 909.894531 460.964844 909.386719 C 460.015625 908.878906 459.054688 908.398438 458.078125 907.9375 C 457.105469 907.476562 456.121094 907.039062 455.125 906.628906 C 454.132812 906.214844 453.128906 905.828125 452.113281 905.464844 C 451.101562 905.105469 450.078125 904.765625 449.046875 904.453125 C 448.015625 904.140625 446.980469 903.855469 445.933594 903.59375 C 444.890625 903.332031 443.839844 903.09375 442.78125 902.886719 C 441.726562 902.675781 440.667969 902.492188 439.601562 902.332031 C 438.535156 902.175781 437.46875 902.042969 436.394531 901.9375 C 435.324219 901.832031 434.25 901.753906 433.175781 901.699219 C 432.101562 901.648438 431.023438 901.621094 429.945312 901.621094 C 428.871094 901.621094 427.792969 901.648438 426.71875 901.699219 C 425.644531 901.753906 424.570312 901.832031 423.496094 901.9375 C 422.425781 902.042969 421.355469 902.175781 420.292969 902.332031 C 419.226562 902.492188 418.167969 902.675781 417.109375 902.886719 C 416.054688 903.09375 415.003906 903.332031 413.960938 903.59375 C 412.914062 903.855469 411.878906 904.140625 410.847656 904.453125 C 409.816406 904.765625 408.792969 905.105469 407.78125 905.464844 C 406.765625 905.828125 405.761719 906.214844 404.765625 906.628906 C 403.773438 907.039062 402.789062 907.476562 401.8125 907.9375 C 400.839844 908.398438 399.878906 908.878906 398.929688 909.386719 C 397.980469 909.894531 397.042969 910.425781 396.117188 910.980469 C 395.195312 911.53125 394.285156 912.109375 393.390625 912.707031 C 392.496094 913.304688 391.613281 913.921875 390.75 914.566406 C 389.882812 915.207031 389.035156 915.867188 388.203125 916.550781 C 387.371094 917.234375 386.554688 917.9375 385.757812 918.660156 C 384.957031 919.382812 384.179688 920.125 383.417969 920.886719 C 382.65625 921.648438 381.914062 922.425781 381.1875 923.222656 C 380.464844 924.023438 379.761719 924.835938 379.078125 925.667969 C 378.394531 926.5 377.734375 927.347656 377.089844 928.214844 C 376.449219 929.078125 375.828125 929.957031 375.230469 930.851562 C 374.632812 931.75 374.054688 932.65625 373.5 933.582031 C 372.949219 934.503906 372.417969 935.441406 371.90625 936.390625 C 371.398438 937.339844 370.914062 938.300781 370.453125 939.273438 C 369.992188 940.246094 369.558594 941.230469 369.144531 942.226562 C 368.730469 943.21875 368.34375 944.226562 367.980469 945.238281 C 367.617188 946.253906 367.277344 947.273438 366.964844 948.304688 C 366.652344 949.335938 366.363281 950.371094 366.101562 951.417969 C 365.839844 952.460938 365.605469 953.511719 365.394531 954.566406 C 365.183594 955.621094 364.996094 956.683594 364.839844 957.75 C 364.679688 958.8125 364.546875 959.882812 364.441406 960.953125 C 364.335938 962.023438 364.253906 963.097656 364.203125 964.175781 C 364.148438 965.25 364.121094 966.324219 364.121094 967.402344 L 364.121094 979.269531 L 266.96875 979.269531 L 266.96875 953.371094 C 293.949219 938.265625 344.660156 901.578125 344.660156 832.511719 C 344.660156 748.289062 245.023438 747.265625 240.175781 747.265625 L 239.988281 747.265625 L 239.988281 630.71875 L 675.949219 630.71875 Z M 675.949219 703.050781 " fill-opacity="1" fill-rule="nonzero"/></g><g clip-path="url(#70f539b1ba)"><path fill="#000000" d="M 666.746094 657.675781 C 672.039062 657.675781 676.328125 661.964844 676.328125 667.253906 C 676.328125 672.546875 672.039062 676.835938 666.746094 676.835938 L 9.808594 676.835938 C 4.515625 676.835938 0.226562 672.546875 0.226562 667.253906 L 0.226562 10.316406 C 0.226562 5.023438 4.515625 0.734375 9.808594 0.734375 C 15.097656 0.734375 19.386719 5.023438 19.386719 10.316406 L 19.386719 657.675781 Z M 38.546875 470.585938 L 38.546875 498.097656 L 115.152344 418.753906 L 245.414062 469.3125 C 248.734375 470.597656 252.347656 469.917969 254.921875 467.816406 L 645.550781 147.882812 L 644.722656 166.667969 C 644.492188 171.941406 648.582031 176.398438 653.851562 176.625 C 659.121094 176.851562 663.582031 172.761719 663.804688 167.492188 L 665.582031 127.328125 C 665.808594 122.058594 661.71875 117.601562 656.449219 117.375 L 616.285156 115.601562 C 611.015625 115.375 606.558594 119.460938 606.332031 124.734375 C 606.105469 130.003906 610.191406 134.460938 615.460938 134.6875 L 630.625 135.355469 L 247.089844 449.476562 L 116.496094 398.789062 C 112.941406 397.242188 108.644531 397.96875 105.796875 400.929688 Z M 483.957031 37.6875 C 480.1875 37.6875 477.113281 40.761719 477.113281 44.53125 L 477.113281 236.320312 L 565.769531 163.707031 L 565.769531 44.53125 C 565.769531 40.761719 562.695312 37.6875 558.925781 37.6875 Z M 565.769531 237.988281 L 477.113281 310.601562 L 477.113281 607.859375 C 477.113281 611.628906 480.1875 614.703125 483.957031 614.703125 L 558.929688 614.703125 C 562.699219 614.703125 565.773438 611.628906 565.773438 607.859375 L 565.773438 237.988281 Z M 75.199219 272.234375 C 71.429688 272.234375 68.355469 275.304688 68.355469 279.074219 L 68.355469 412.125 L 92.011719 387.621094 C 100.234375 379.109375 112.816406 376.519531 123.691406 381.03125 L 157.011719 393.964844 L 157.011719 279.078125 C 157.011719 275.308594 153.941406 272.234375 150.171875 272.234375 Z M 157.011719 455.554688 L 120.089844 441.222656 L 68.355469 494.808594 L 68.355469 607.859375 C 68.355469 611.628906 71.429688 614.703125 75.199219 614.703125 L 150.171875 614.703125 C 153.941406 614.703125 157.015625 611.628906 157.015625 607.859375 L 157.015625 455.554688 Z M 211.453125 382.355469 C 207.679688 382.355469 204.605469 385.429688 204.609375 389.203125 L 204.609375 412.4375 L 243.601562 427.570312 L 292.953125 387.148438 C 292.078125 384.375 289.480469 382.351562 286.421875 382.351562 C 261.433594 382.355469 236.441406 382.355469 211.453125 382.355469 Z M 293.265625 461.175781 L 267.058594 482.640625 C 259.097656 489.160156 248.089844 490.902344 238.480469 487.175781 L 204.605469 474.027344 L 204.605469 607.855469 C 204.605469 611.625 207.679688 614.703125 211.449219 614.703125 C 236.441406 614.703125 261.429688 614.703125 286.421875 614.703125 C 290.191406 614.703125 293.269531 611.625 293.265625 607.855469 Z M 347.703125 149.164062 C 343.933594 149.164062 340.859375 152.238281 340.859375 156.007812 L 340.859375 347.910156 L 429.515625 275.300781 L 429.515625 156.007812 C 429.515625 152.238281 426.441406 149.164062 422.675781 149.164062 C 397.683594 149.164062 372.695312 149.164062 347.703125 149.164062 Z M 429.515625 349.582031 L 340.859375 422.195312 L 340.859375 607.859375 C 340.859375 611.628906 343.933594 614.703125 347.703125 614.703125 C 372.695312 614.703125 397.683594 614.703125 422.675781 614.703125 C 426.445312 614.703125 429.519531 611.628906 429.519531 607.859375 L 429.519531 349.582031 Z M 429.515625 349.582031 " fill-opacity="1" fill-rule="evenodd"/></g></g></g></svg>